<?xml version="1.0" encoding="utf-8"?>
<!-- Generator: Adobe Illustrator 23.1.0, SVG Export Plug-In . SVG Version: 6.00 Build 0)  -->
<svg version="1.1" id="Camada_1" xmlns="http://www.w3.org/2000/svg" xmlns:xlink="http://www.w3.org/1999/xlink" x="0px" y="0px"
	 viewBox="0 0 50.3 18.8" style="enable-background:new 0 0 50.3 18.8;" xml:space="preserve">
<style type="text/css">
	.st0{fill:#FFFFFF;}
</style>
<g>
	<path class="st0" d="M8,7.8h7.9v9.9c-2.1,0.7-4.5,1.1-7.1,1.1c-2.8,0-5-0.8-6.5-2.5s-2.3-4-2.3-7c0-3,0.8-5.3,2.5-6.9S6.6,0,9.6,0
		c1.2,0,2.2,0.1,3.3,0.3c1,0.2,1.9,0.5,2.7,0.8L14,5c-1.3-0.7-2.8-1-4.3-1c-1.4,0-2.6,0.5-3.3,1.4c-0.8,0.9-1.2,2.3-1.2,4
		c0,1.7,0.4,3,1.1,3.9s1.7,1.3,3.1,1.3c0.7,0,1.4-0.1,2-0.2v-2.9H8V7.8z"/>
	<path class="st0" d="M30.5,18.5H19.6V0.3h10.8v4h-5.9v2.9H30v4h-5.5v3.4h5.9C30.5,14.5,30.5,18.5,30.5,18.5z"/>
	<path class="st0" d="M44.9,18.5L44,15.1H38l-0.9,3.4h-5.4l6-18.4h6.6l6,18.4H44.9z M43,11.1l-0.8-3c-0.2-0.7-0.4-1.5-0.7-2.6
		S41.1,3.6,41,3.2c-0.1,0.4-0.2,1.1-0.4,2.1c-0.2,1-0.7,2.9-1.5,5.8H43z"/>
</g>
</svg>
