<?xml version="1.0" encoding="utf-8"?>
<!-- Generator: Adobe Illustrator 23.1.0, SVG Export Plug-In . SVG Version: 6.00 Build 0)  -->
<svg version="1.1" id="Camada_1" xmlns="http://www.w3.org/2000/svg" xmlns:xlink="http://www.w3.org/1999/xlink" x="0px" y="0px"
	 viewBox="0 0 147.19 19.17" style="enable-background:new 0 0 147.19 19.17;" xml:space="preserve">
<style type="text/css">
	.st0{fill:#39302A;}
	.st1{fill:none;stroke:#E8E6E6;stroke-miterlimit:10;}
</style>
<g>
	<path class="st0" d="M104.92,8.22h7.89v9.85c-2.14,0.73-4.5,1.1-7.06,1.1c-2.82,0-4.99-0.82-6.53-2.45s-2.31-3.96-2.31-6.99
		c0-2.95,0.84-5.25,2.52-6.89c1.68-1.64,4.04-2.46,7.07-2.46c1.15,0,2.23,0.11,3.26,0.33c1.02,0.22,1.91,0.49,2.67,0.83l-1.56,3.87
		c-1.32-0.65-2.76-0.97-4.34-0.97c-1.44,0-2.56,0.47-3.34,1.41c-0.79,0.94-1.18,2.28-1.18,4.02c0,1.71,0.36,3.01,1.07,3.91
		c0.71,0.9,1.74,1.34,3.08,1.34c0.73,0,1.41-0.07,2.02-0.21v-2.86h-3.26V8.22z"/>
	<path class="st0" d="M127.38,18.92h-10.85V0.65h10.85v3.96h-5.91v2.87h5.47v3.96h-5.47v3.45h5.91V18.92z"/>
	<path class="st0" d="M141.79,18.92l-0.9-3.42h-5.94l-0.92,3.42h-5.42l5.96-18.35h6.59l6.04,18.35H141.79z M139.87,11.44l-0.79-3
		c-0.18-0.67-0.41-1.53-0.67-2.59c-0.26-1.06-0.44-1.82-0.52-2.27c-0.07,0.42-0.22,1.12-0.44,2.1c-0.22,0.97-0.71,2.89-1.47,5.76
		H139.87z"/>
</g>
<line class="st1" x1="87.65" y1="2.63" x2="87.65" y2="16.4"/>
<path class="st0" d="M62.85,13.65c-9.26,0-11,4.84-22.01,4.84v-2.42c10.43,0,12.1-4.84,22.01-4.84V13.65z M62.85,6.39
	c-9.9,0-11.58,4.84-22.01,4.84v2.42c11.01,0,12.75-4.84,22.01-4.84V6.39z M62.85,1.55c-9.9,0-11.58,4.84-22.01,4.84v2.42
	c11.01,0,12.75-4.84,22.01-4.84V1.55z"/>
<g>
	<path class="st0" d="M65.93,3.87c-0.22-0.09-0.43-0.23-0.61-0.42l0.49-0.6c0.13,0.14,0.26,0.24,0.41,0.31
		c0.15,0.07,0.29,0.11,0.42,0.11c0.09,0,0.17-0.01,0.23-0.04c0.06-0.03,0.1-0.06,0.13-0.1c0.02-0.04,0.04-0.09,0.04-0.14
		c0-0.1-0.04-0.17-0.11-0.23c-0.07-0.06-0.21-0.12-0.42-0.19c-0.09-0.03-0.16-0.06-0.23-0.08c-0.07-0.03-0.14-0.06-0.22-0.1
		c-0.08-0.04-0.14-0.08-0.2-0.12c-0.06-0.04-0.11-0.09-0.17-0.15c-0.06-0.06-0.1-0.12-0.14-0.18c-0.03-0.06-0.06-0.14-0.08-0.22
		c-0.02-0.08-0.03-0.17-0.03-0.27c0-0.19,0.05-0.37,0.15-0.53c0.1-0.16,0.24-0.28,0.42-0.37c0.18-0.09,0.37-0.14,0.58-0.14
		c0.44-0.01,0.85,0.15,1.22,0.46l-0.47,0.61c-0.28-0.23-0.52-0.34-0.73-0.34c-0.1,0-0.18,0.02-0.23,0.07
		c-0.06,0.05-0.09,0.12-0.09,0.2c0,0.08,0.03,0.14,0.11,0.19c0.07,0.05,0.21,0.12,0.41,0.19c0.3,0.11,0.5,0.2,0.6,0.26
		c0.22,0.12,0.36,0.27,0.43,0.45c0.04,0.11,0.06,0.23,0.06,0.37c0,0.16-0.03,0.3-0.08,0.44c-0.05,0.13-0.12,0.24-0.21,0.32
		c-0.09,0.08-0.19,0.15-0.3,0.21c-0.11,0.06-0.23,0.1-0.34,0.12C66.85,4,66.73,4.01,66.62,4.01C66.38,4.01,66.15,3.96,65.93,3.87z"
		/>
	<path class="st0" d="M68.34,0.44h2.3v0.74h-1.48v0.67h1.17v0.73h-1.17v0.64h1.59v0.74h-2.4V0.44z"/>
	<path class="st0" d="M74.24,0.44v3.52h-0.85l-1.33-2.11h-0.01v2.11h-0.82V0.44h0.83l1.36,2.16h0.01V0.44H74.24z"/>
	<path class="st0" d="M76.88,3.33h-1.24l-0.2,0.63h-0.87l1.29-3.52h0.79l1.29,3.52h-0.87L76.88,3.33z M76.65,2.63l-0.39-1.19h-0.01
		l-0.38,1.19H76.65z"/>
	<path class="st0" d="M78.3,0.44h0.84v3.52H78.3V0.44z"/>
	<path class="st0" d="M65.93,8.63c-0.22-0.09-0.43-0.23-0.61-0.42l0.49-0.6c0.13,0.14,0.26,0.24,0.41,0.31
		c0.15,0.07,0.29,0.11,0.42,0.11c0.09,0,0.17-0.01,0.23-0.04c0.06-0.03,0.1-0.06,0.13-0.1c0.02-0.04,0.04-0.09,0.04-0.14
		c0-0.1-0.04-0.17-0.11-0.23c-0.07-0.06-0.21-0.12-0.42-0.19c-0.09-0.03-0.16-0.06-0.23-0.08c-0.07-0.03-0.14-0.06-0.22-0.1
		c-0.08-0.04-0.14-0.08-0.2-0.12c-0.06-0.04-0.11-0.09-0.17-0.15c-0.06-0.06-0.1-0.12-0.14-0.18c-0.03-0.06-0.06-0.14-0.08-0.22
		c-0.02-0.08-0.03-0.17-0.03-0.27c0-0.19,0.05-0.37,0.15-0.53c0.1-0.16,0.24-0.28,0.42-0.37c0.18-0.09,0.37-0.14,0.58-0.14
		c0.44-0.01,0.85,0.15,1.22,0.46l-0.47,0.61c-0.28-0.23-0.52-0.34-0.73-0.34c-0.1,0-0.18,0.02-0.23,0.07
		c-0.06,0.05-0.09,0.12-0.09,0.2c0,0.08,0.03,0.14,0.11,0.19c0.07,0.05,0.21,0.12,0.41,0.19c0.3,0.11,0.5,0.2,0.6,0.26
		c0.22,0.12,0.36,0.27,0.43,0.45c0.04,0.11,0.06,0.23,0.06,0.37c0,0.16-0.03,0.3-0.08,0.44c-0.05,0.13-0.12,0.24-0.21,0.32
		c-0.09,0.08-0.19,0.15-0.3,0.21c-0.11,0.06-0.23,0.1-0.34,0.12c-0.12,0.02-0.23,0.04-0.35,0.04C66.38,8.77,66.15,8.73,65.93,8.63z"
		/>
	<path class="st0" d="M68.34,5.21h2.3v0.74h-1.48v0.67h1.17v0.73h-1.17v0.64h1.59v0.74h-2.4V5.21z"/>
	<path class="st0" d="M71.61,8.63C71.39,8.54,71.18,8.4,71,8.21l0.49-0.6c0.13,0.14,0.26,0.24,0.41,0.31
		c0.15,0.07,0.29,0.11,0.42,0.11c0.09,0,0.17-0.01,0.23-0.04c0.06-0.03,0.1-0.06,0.13-0.1c0.02-0.04,0.04-0.09,0.04-0.14
		c0-0.1-0.04-0.17-0.11-0.23c-0.07-0.06-0.21-0.12-0.42-0.19c-0.09-0.03-0.16-0.06-0.23-0.08c-0.07-0.03-0.14-0.06-0.22-0.1
		c-0.08-0.04-0.14-0.08-0.2-0.12c-0.06-0.04-0.11-0.09-0.17-0.15c-0.06-0.06-0.1-0.12-0.14-0.18c-0.03-0.06-0.06-0.14-0.08-0.22
		c-0.02-0.08-0.03-0.17-0.03-0.27c0-0.19,0.05-0.37,0.15-0.53c0.1-0.16,0.24-0.28,0.42-0.37c0.18-0.09,0.37-0.14,0.58-0.14
		c0.44-0.01,0.85,0.15,1.22,0.46l-0.47,0.61c-0.28-0.23-0.52-0.34-0.73-0.34c-0.1,0-0.18,0.02-0.23,0.07
		c-0.06,0.05-0.09,0.12-0.09,0.2c0,0.08,0.03,0.14,0.11,0.19c0.07,0.05,0.21,0.12,0.41,0.19c0.3,0.11,0.5,0.2,0.6,0.26
		c0.22,0.12,0.36,0.27,0.43,0.45c0.04,0.11,0.06,0.23,0.06,0.37c0,0.16-0.03,0.3-0.08,0.44c-0.05,0.13-0.12,0.24-0.21,0.32
		c-0.09,0.08-0.19,0.15-0.3,0.21c-0.11,0.06-0.23,0.1-0.34,0.12c-0.12,0.02-0.23,0.04-0.35,0.04C72.06,8.77,71.83,8.73,71.61,8.63z"
		/>
	<path class="st0" d="M74.04,5.21h0.84v3.52h-0.84V5.21z"/>
	<path class="st0" d="M65.56,9.97h0.84v3.52h-0.84V9.97z"/>
	<path class="st0" d="M67.03,9.97h2.3v0.74h-1.48v0.67h1.17v0.73h-1.17v0.64h1.59v0.74h-2.4V9.97z"/>
	<path class="st0" d="M69.91,9.97h0.83v2.78h1.48v0.74h-2.31V9.97z"/>
	<path class="st0" d="M66.66,18.22c-0.18-0.05-0.34-0.12-0.5-0.22c-0.15-0.1-0.28-0.22-0.4-0.36c-0.11-0.14-0.2-0.31-0.26-0.5
		c-0.06-0.19-0.1-0.4-0.1-0.63c0-0.2,0.03-0.39,0.08-0.58c0.05-0.18,0.13-0.35,0.23-0.5c0.1-0.15,0.22-0.28,0.37-0.39
		c0.14-0.11,0.31-0.2,0.51-0.26c0.19-0.06,0.41-0.09,0.63-0.09c0.17,0,0.33,0.02,0.49,0.07c0.16,0.05,0.33,0.12,0.49,0.23
		c0.16,0.1,0.31,0.23,0.43,0.39l-0.61,0.52c-0.1-0.11-0.22-0.21-0.36-0.29c-0.14-0.08-0.29-0.12-0.45-0.12
		c-0.09,0-0.17,0.01-0.25,0.03c-0.08,0.02-0.16,0.05-0.22,0.09c-0.07,0.04-0.13,0.09-0.19,0.15c-0.06,0.06-0.11,0.13-0.15,0.2
		c-0.04,0.07-0.07,0.16-0.1,0.25c-0.02,0.09-0.03,0.19-0.03,0.3c0,0.19,0.04,0.35,0.11,0.51c0.08,0.15,0.19,0.27,0.33,0.36
		c0.15,0.09,0.31,0.13,0.5,0.13c0.15,0,0.3-0.04,0.45-0.11c0.14-0.07,0.26-0.17,0.36-0.29l0.61,0.52c-0.16,0.2-0.36,0.36-0.61,0.49
		c-0.24,0.12-0.51,0.19-0.81,0.19C67.03,18.29,66.84,18.27,66.66,18.22z"/>
	<path class="st0" d="M69.07,14.73h0.84v3.52h-0.84V14.73z"/>
	<path class="st0" d="M72.37,18.25l-0.72-1.13h-0.29v1.13h-0.82v-3.52h1.37c0.21,0,0.4,0.03,0.56,0.09
		c0.16,0.06,0.29,0.15,0.39,0.26c0.1,0.11,0.18,0.24,0.23,0.38c0.05,0.15,0.08,0.31,0.08,0.48c0,0.26-0.06,0.48-0.17,0.66
		c-0.11,0.18-0.27,0.31-0.48,0.4v0.01l0.82,1.24H72.37z M71.36,16.39h0.38c0.18,0,0.32-0.04,0.42-0.12c0.1-0.08,0.15-0.2,0.15-0.34
		c0-0.14-0.05-0.25-0.15-0.33c-0.1-0.09-0.23-0.13-0.41-0.13h-0.4V16.39z"/>
	<path class="st0" d="M73.89,18.18c-0.18-0.08-0.32-0.19-0.44-0.34l0.48-0.58c0.04,0.05,0.08,0.09,0.12,0.13
		c0.05,0.04,0.1,0.07,0.16,0.09c0.06,0.02,0.12,0.04,0.17,0.04c0.24,0,0.36-0.17,0.36-0.51v-2.27h0.83v2.24
		c0,0.16-0.01,0.31-0.04,0.44c-0.02,0.13-0.06,0.25-0.12,0.36c-0.06,0.11-0.13,0.2-0.21,0.28c-0.09,0.08-0.19,0.13-0.32,0.18
		c-0.13,0.04-0.27,0.06-0.44,0.06C74.25,18.3,74.06,18.26,73.89,18.18z"/>
</g>
<path class="st0" d="M24.55,13.82c-0.48,0-0.93-0.09-1.34-0.27s-0.77-0.43-1.06-0.74c-0.29-0.32-0.52-0.7-0.69-1.16
	c-0.16-0.46-0.25-0.96-0.25-1.5c0-0.53,0.08-1.03,0.25-1.49c0.16-0.46,0.39-0.85,0.68-1.17c0.29-0.32,0.63-0.57,1.03-0.75
	c0.4-0.18,0.82-0.27,1.28-0.27c0.8,0,1.45,0.29,1.95,0.88h0.03V6.61h2.27v4.38c0,0.61,0.15,0.85,0.57,0.85
	c0.11,0,0.24-0.02,0.38-0.03v1.89c-0.24,0.08-0.58,0.12-1.02,0.12c-0.5,0-0.93-0.09-1.25-0.27c-0.35-0.23-0.58-0.5-0.69-0.83h0
	h-0.03C26.64,12.72,26.14,13.82,24.55,13.82z M8.07,6.61h2.25v4.42c0,0.56,0.14,0.8,0.51,0.8c0.14,0,0.23-0.01,0.27-0.03v1.92
	c-0.2,0.08-0.54,0.12-1.04,0.12c-1.33,0-1.99-0.71-1.99-2.14V6.61z M17.85,6.61h2.26v7.35c0,1.82-0.89,2.73-2.67,2.73
	c-0.38,0-0.7-0.02-0.98-0.06v-1.97c0.23,0.02,0.38,0.03,0.48,0.03c0.62,0,0.91-0.27,0.91-1V6.61z M0,3.41h6.95v2.16H2.38v2.31h3.77
	v2.15H2.38v3.66H0V3.41z M8.24,5.35c-0.26-0.23-0.39-0.54-0.39-0.9c0-0.24,0.06-0.46,0.18-0.65c0.12-0.19,0.28-0.34,0.49-0.44
	C8.73,3.25,8.95,3.2,9.2,3.2c0.38,0,0.7,0.12,0.96,0.35c0.26,0.24,0.39,0.53,0.39,0.9c0,0.37-0.13,0.67-0.39,0.9
	C9.9,5.59,9.58,5.7,9.2,5.7C8.82,5.7,8.5,5.59,8.24,5.35z M18.01,5.29c-0.26-0.23-0.39-0.54-0.39-0.9c0-0.36,0.13-0.66,0.39-0.9
	c0.26-0.24,0.58-0.35,0.96-0.35c0.38,0,0.7,0.12,0.96,0.35c0.26,0.23,0.39,0.53,0.39,0.9c0,0.37-0.13,0.67-0.39,0.9
	c-0.26,0.23-0.58,0.35-0.96,0.35C18.58,5.65,18.27,5.53,18.01,5.29z M11.89,13.69V6.61h2.26v1.05c0.35-0.77,1.17-1.21,2.21-1.21
	c0.15,0,0.35,0.02,0.59,0.05v2.12c-0.23-0.05-0.49-0.08-0.76-0.08c-1.29,0-2.04,0.73-2.04,1.99v3.17H11.89z M26.06,11.43
	c0.3-0.32,0.45-0.75,0.45-1.26c0-0.34-0.07-0.64-0.2-0.91c-0.14-0.27-0.32-0.48-0.56-0.63c-0.24-0.15-0.51-0.23-0.8-0.23
	c-0.46,0-0.84,0.16-1.14,0.49c-0.3,0.33-0.45,0.75-0.45,1.28c0,0.52,0.15,0.94,0.45,1.26c0.3,0.32,0.68,0.49,1.14,0.49
	C25.38,11.92,25.76,11.75,26.06,11.43z M37.51,10.98c0,0.59,0.12,0.8,0.5,0.8h0.15l0.09-0.01v1.91c-0.18,0.08-0.52,0.11-0.98,0.11
	c-1.35,0-2.01-0.73-2.01-2.18V9.95c0-1-0.4-1.56-1.1-1.56c-0.7,0-1.33,0.51-1.33,1.74v3.55h-2.26V6.61h2.26v0.86h0.01
	c0.28-0.32,0.6-0.57,0.97-0.73c0.37-0.17,0.76-0.25,1.17-0.25c0.39,0,0.73,0.05,1.02,0.15c0.3,0.1,0.56,0.27,0.8,0.49
	c0.23,0.23,0.41,0.53,0.53,0.93c0.12,0.39,0.18,0.86,0.18,1.4L37.51,10.98z"/>
</svg>
