<?xml version="1.0" encoding="utf-8"?>
<!-- Generator: Adobe Illustrator 23.1.1, SVG Export Plug-In . SVG Version: 6.00 Build 0)  -->
<svg version="1.1" id="Layer_1" xmlns="http://www.w3.org/2000/svg" xmlns:xlink="http://www.w3.org/1999/xlink" x="0px" y="0px"
	 viewBox="0 0 50 50" style="enable-background:new 0 0 50 50;" xml:space="preserve">
<style type="text/css">
	.st0{fill:#FEBECC;}
	.st1{fill:#FFFFFF;}
	.st2{fill:#9BEAF9;}
	.st3{fill:#505050;}
</style>
<g>
	<path class="st0" d="M2.9,24.2C5,25,7.3,25.5,9.7,25.5c10,0,18-8.1,18-18c0-2.2-0.4-4.4-1.2-6.4H2.9V24.2z"/>
	<g>
		<path class="st1" d="M46.1,48.1H7.2c0.1-8.9,6.1-16.3,14.2-18.6l5.2,9l5.2-9C40,31.8,46,39.2,46.1,48.1z"/>
		<path class="st2" d="M39.3,16.2v-2.8l-4-0.8c-0.2-0.9-0.6-1.8-1-2.5l2.3-3.3l-2-2l-3.3,2.3c-0.8-0.5-1.6-0.8-2.5-1l-0.8-4h-2.8
			l-0.7,4c-0.9,0.2-1.8,0.6-2.5,1l-3.3-2.3l-2,2l2.3,3.3c-0.5,0.8-0.8,1.6-1,2.5l-4,0.8v2.8l4,0.8c0.2,0.9,0.6,1.8,1,2.5l-2.3,3.3
			l2,2l3.3-2.3c0.8,0.5,1.6,0.8,2.5,1l0.8,4H28l0.8-4c0.9-0.2,1.8-0.6,2.5-1l3.3,2.3l2-2l-2.3-3.3c0.5-0.8,0.8-1.6,1-2.5L39.3,16.2z
			 M26.6,19c-2.3,0-4.2-1.9-4.2-4.2s1.9-4.2,4.2-4.2s4.2,1.9,4.2,4.2S28.9,19,26.6,19z"/>
		<g>
			<path class="st3" d="M32.3,28.8c-0.3-0.1-0.7,0-0.9,0.4L26.9,37l-4.5-7.9c-0.2-0.3-0.5-0.4-0.9-0.4C12.9,31.2,6.8,39.1,6.7,48.1
				c0,0.2,0.1,0.4,0.2,0.5s0.3,0.2,0.5,0.2h38.8c0.2,0,0.4-0.1,0.5-0.2s0.2-0.3,0.2-0.5C47,39.1,40.9,31.2,32.3,28.8z M39.5,47.4
				v-3.8c0-0.4-0.3-0.8-0.8-0.8S38,43.2,38,43.6v3.8H15.8v-3.8c0-0.4-0.3-0.8-0.8-0.8s-0.8,0.3-0.8,0.8v3.8H8.3
				c0.4-7.8,5.6-14.6,13.1-17l4.9,8.5c0.1,0.2,0.4,0.4,0.6,0.4s0.5-0.1,0.6-0.4l4.9-8.5c7.5,2.3,12.7,9.1,13.1,17L39.5,47.4
				L39.5,47.4z"/>
			<path class="st3" d="M14.1,16.9l3.5,0.7c0.2,0.6,0.4,1.2,0.8,1.8l-2,3c-0.2,0.3-0.2,0.7,0.1,1l2,2c0.3,0.2,0.7,0.3,1,0.1l3-2
				c0.6,0.3,1.2,0.6,1.8,0.8l0.7,3.5c0.1,0.4,0.4,0.6,0.7,0.6h2.8c0.4,0,0.7-0.3,0.7-0.6l0.7-3.5c0.6-0.2,1.2-0.4,1.8-0.8l3,2
				c0.3,0.2,0.7,0.2,1-0.1l2-2c0.2-0.2,0.3-0.6,0.1-1l-2-3c0.3-0.6,0.6-1.2,0.8-1.8l3.5-0.7c0.3-0.1,0.6-0.4,0.6-0.7v-2.8
				c0-0.4-0.3-0.7-0.6-0.7L36.2,12c-0.2-0.6-0.4-1.2-0.8-1.8l2-2.9c0.2-0.3,0.2-0.7-0.1-0.9l-2-2c-0.3-0.3-0.7-0.3-1-0.1l-2.9,2
				C31,6,30.3,5.7,29.7,5.5L29,2c-0.1-0.4-0.4-0.6-0.7-0.6h-2.8c-0.4,0-0.7,0.3-0.7,0.6l-0.7,3.5c-0.6,0.2-1.3,0.4-1.8,0.8l-2.9-2
				c-0.3-0.2-0.7-0.2-1,0.1l-2,2c-0.2,0.2-0.3,0.7-0.1,0.9l2,2.9c-0.3,0.6-0.6,1.2-0.8,1.8l-3.5,0.7c-0.4,0.1-0.6,0.4-0.6,0.7v2.8
				C13.5,16.6,13.7,16.9,14.1,16.9z M15,14.1l3.3-0.6c0.3,0,0.5-0.3,0.6-0.6c0.2-0.8,0.5-1.6,1-2.3c0.2-0.2,0.1-0.6,0-0.8l-1.9-2.8
				L19,5.8l2.8,1.9c0.2,0.2,0.6,0.2,0.8,0C23.4,7.4,24.1,7,25,6.8c0.3-0.1,0.5-0.3,0.6-0.6l0.6-3.4h1.5l0.6,3.4
				c0,0.3,0.3,0.5,0.6,0.6c0.8,0.2,1.6,0.5,2.3,0.9c0.2,0.2,0.6,0.2,0.8,0l2.8-1.9l1.1,1.1L34,9.7c-0.2,0.2-0.2,0.6,0,0.8
				c0.4,0.7,0.8,1.5,1,2.3c0.1,0.3,0.3,0.5,0.6,0.6l3.3,0.6v1.5l-3.3,0.6c-0.3,0-0.5,0.3-0.6,0.6c-0.2,0.8-0.5,1.6-1,2.3
				c-0.2,0.2-0.2,0.6,0,0.8l1.9,2.8l-1.1,1.1L32,21.9c-0.2-0.2-0.6-0.2-0.8,0c-0.7,0.4-1.5,0.8-2.3,1c-0.3,0.1-0.5,0.3-0.6,0.6
				l-0.6,3.4h-1.5l-0.6-3.4c0-0.3-0.3-0.5-0.6-0.6c-0.8-0.2-1.6-0.5-2.3-1c-0.2-0.1-0.6-0.1-0.8,0L19,23.8L18,22.7l1.9-2.8
				c0.2-0.2,0.2-0.6,0-0.8c-0.4-0.7-0.8-1.5-1-2.3c-0.1-0.3-0.3-0.5-0.6-0.6L15,15.6L15,14.1L15,14.1z"/>
			<path class="st3" d="M26.9,19.7c2.7,0,4.9-2.2,4.9-4.9s-2.2-4.9-4.9-4.9S22,12.1,22,14.8S24.2,19.7,26.9,19.7z M26.9,11.4
				c1.9,0,3.4,1.5,3.4,3.4c0,1.9-1.5,3.4-3.4,3.4s-3.4-1.5-3.4-3.4S25,11.4,26.9,11.4z"/>
		</g>
	</g>
</g>
</svg>
