<?xml version="1.0" encoding="utf-8"?>
<!-- Generator: Adobe Illustrator 23.1.0, SVG Export Plug-In . SVG Version: 6.00 Build 0)  -->
<svg version="1.1" id="Layer_1" xmlns="http://www.w3.org/2000/svg" xmlns:xlink="http://www.w3.org/1999/xlink" x="0px" y="0px"
	 viewBox="0 0 50 50" style="enable-background:new 0 0 50 50;" xml:space="preserve">
<style type="text/css">
	.st0{fill:#4274D3;}
	.st1{fill:#FFFFFF;}
	.st2{fill:#E79B9A;}
	.st3{fill:#9AE8F7;}
	.st4{fill:#E69797;}
	.st5{fill:#505050;}
</style>
<g>
	<path class="st0" d="M39.9,44c0-9.7-7.7-17.7-17.3-17.8c-0.1,0-0.2,0-0.2,0c-11.7,0-21.1,9.4-21.1,21.1c0,0.6,0,1.2,0.1,1.8h38.6
		V44z"/>
	<g>
		<g>
			<rect x="5.8" y="35.2" width="6" height="6"/>
		</g>
		<g>
			<polyline class="st1" points="25.7,6.3 33.1,6.3 33.1,48 2.6,48 2.6,6.3 10,6.3 			"/>
			<path class="st2" d="M26,8.2H9.7l0.8-4.4h5.4c0-1.1,0.9-2,2-2c1.1,0,2,0.9,2,2h5.4L26,8.2z"/>
		</g>
		<g>
			<rect x="5.8" y="14.5" class="st3" width="6" height="6"/>
		</g>
		<g>
			<rect x="5.8" y="24.8" class="st3" width="6" height="6"/>
		</g>
		<g>
			<rect x="5.8" y="35.2" class="st3" width="6" height="6"/>
		</g>
		<path class="st4" d="M38.2,10.3v26l3.2,6.3l3.2-6.3v-26c0-1.7-1.4-3.2-3.2-3.2l0,0C39.6,7.2,38.2,8.6,38.2,10.3z"/>
		<polygon class="st1" points="38.2,36.1 38.2,36.3 41.3,42.6 44.5,36.3 44.5,36.1 		"/>
		<g>
			<path class="st5" d="M5.1,41.1c0,0.4,0.3,0.8,0.8,0.8h6c0.4,0,0.8-0.3,0.8-0.8v-6c0-0.4-0.3-0.8-0.8-0.8h-6
				c-0.4,0-0.8,0.3-0.8,0.8V41.1z M6.6,35.9h4.5v4.5H6.6V35.9z"/>
			<path class="st5" d="M29.6,36c0-0.4-0.3-0.8-0.8-0.8H15.3c-0.4,0-0.8,0.3-0.8,0.8c0,0.4,0.3,0.8,0.8,0.8h13.5
				C29.2,36.8,29.6,36.5,29.6,36z"/>
			<path class="st5" d="M15.3,38.6c-0.4,0-0.8,0.3-0.8,0.8c0,0.4,0.3,0.8,0.8,0.8h5.8c0.4,0,0.8-0.3,0.8-0.8c0-0.4-0.3-0.8-0.8-0.8
				H15.3z"/>
			<circle class="st5" cx="33.1" cy="44" r="0.8"/>
			<path class="st5" d="M33.1,5.5h-6.8L26,3.6C25.9,3.3,25.6,3,25.2,3h-4.8c-0.3-1.2-1.4-2-2.6-2c-1.2,0-2.3,0.8-2.6,2h-4.8
				c-0.4,0-0.7,0.3-0.7,0.6L9.4,5.5H2.6C2.4,5.5,2.2,5.6,2,5.7C1.9,5.9,1.8,6.1,1.8,6.3V48c0,0.2,0.1,0.4,0.2,0.5
				c0.1,0.1,0.3,0.2,0.5,0.2h30.5c0.2,0,0.4-0.1,0.5-0.2c0.1-0.1,0.2-0.3,0.2-0.5v-1.9c0-0.4-0.3-0.8-0.8-0.8
				c-0.4,0-0.8,0.3-0.8,0.8v1.2h-29V7h5.8L8.9,8c0,0.2,0,0.4,0.2,0.6c0.1,0.2,0.4,0.3,0.6,0.3H26c0.2,0,0.4-0.1,0.6-0.3
				c0.1-0.2,0.2-0.4,0.2-0.6l-0.2-1h5.8v35c0,0.4,0.3,0.8,0.8,0.8c0.4,0,0.8-0.3,0.8-0.8V6.3c0-0.2-0.1-0.4-0.2-0.5
				C33.5,5.6,33.3,5.5,33.1,5.5z M10.6,7.4l0.5-2.9h4.8c0.2,0,0.4-0.1,0.5-0.2c0.2-0.1,0.2-0.3,0.2-0.5c0-0.7,0.6-1.2,1.2-1.2
				c0.7,0,1.2,0.6,1.2,1.2c0,0.2,0.1,0.4,0.2,0.5c0.1,0.1,0.3,0.2,0.5,0.2h4.8l0.5,2.9H10.6z"/>
			<path class="st5" d="M5.9,21.2h6c0.2,0,0.4-0.1,0.5-0.2c0.1-0.1,0.2-0.3,0.2-0.5v-6c0-0.2-0.1-0.4-0.2-0.5
				c-0.1-0.1-0.3-0.2-0.5-0.2h-6c-0.2,0-0.4,0.1-0.5,0.2s-0.2,0.3-0.2,0.5v6c0,0.2,0.1,0.4,0.2,0.5S5.7,21.2,5.9,21.2z M6.6,15.3
				h4.5v4.5H6.6V15.3z"/>
			<path class="st5" d="M15.3,16.1h13.5c0.4,0,0.8-0.3,0.8-0.8c0-0.4-0.3-0.8-0.8-0.8H15.3c-0.4,0-0.8,0.3-0.8,0.8
				C14.5,15.8,14.9,16.1,15.3,16.1z"/>
			<path class="st5" d="M15.3,19.5h5.8c0.4,0,0.8-0.3,0.8-0.8c0-0.4-0.3-0.8-0.8-0.8h-5.8c-0.4,0-0.8,0.3-0.8,0.8
				C14.5,19.2,14.9,19.5,15.3,19.5z"/>
			<path class="st5" d="M5.1,30.8c0,0.2,0.1,0.4,0.2,0.5c0.1,0.1,0.3,0.2,0.5,0.2h6c0.2,0,0.4-0.1,0.5-0.2c0.1-0.1,0.2-0.3,0.2-0.5
				v-6c0-0.2-0.1-0.4-0.2-0.5c-0.1-0.1-0.3-0.2-0.5-0.2h-6c-0.2,0-0.4,0.1-0.5,0.2c-0.1,0.1-0.2,0.3-0.2,0.5V30.8z M6.6,25.6h4.5
				v4.5H6.6V25.6z"/>
			<path class="st5" d="M15.3,26.5h13.5c0.4,0,0.8-0.3,0.8-0.8c0-0.4-0.3-0.8-0.8-0.8H15.3c-0.4,0-0.8,0.3-0.8,0.8
				C14.5,26.1,14.9,26.5,15.3,26.5z"/>
			<path class="st5" d="M15.3,29.8h5.8c0.4,0,0.8-0.3,0.8-0.8c0-0.4-0.3-0.8-0.8-0.8h-5.8c-0.4,0-0.8,0.3-0.8,0.8
				C14.5,29.5,14.9,29.8,15.3,29.8z"/>
			<circle class="st5" cx="44.5" cy="31.1" r="0.8"/>
			<path class="st5" d="M48.6,12.7c-0.1-0.1-0.3-0.2-0.5-0.2h-2.8v-2.2c0-2.2-1.7-3.9-3.9-3.9c-2.2,0-3.9,1.7-3.9,3.9v26l0,0.1
				c0,0.1,0,0.2,0.1,0.3v0l3.2,6.3c0.1,0.3,0.4,0.4,0.7,0.4c0.3,0,0.6-0.2,0.7-0.4l3.2-6.3v0c0-0.1,0.1-0.2,0.1-0.3v-3.1
				c0-0.4-0.3-0.8-0.8-0.8c-0.4,0-0.8,0.3-0.8,0.8v2.4h-4.8V14h4.8v15.1c0,0.4,0.3,0.8,0.8,0.8c0.4,0,0.8-0.3,0.8-0.8V14h2.1v11.5
				c0,0.4,0.3,0.8,0.8,0.8c0.4,0,0.8-0.3,0.8-0.8V13.3C48.8,13.1,48.7,12.9,48.6,12.7z M41.3,40.9L39.4,37h3.9L41.3,40.9z
				 M38.9,12.5v-2.2c0-1.3,1.1-2.4,2.4-2.4c1.3,0,2.4,1.1,2.4,2.4v2.2H38.9z"/>
		</g>
	</g>
</g>
</svg>
