<?xml version="1.0" encoding="utf-8"?>
<!-- Generator: Adobe Illustrator 23.1.0, SVG Export Plug-In . SVG Version: 6.00 Build 0)  -->
<svg version="1.1" id="Layer_1" xmlns="http://www.w3.org/2000/svg" xmlns:xlink="http://www.w3.org/1999/xlink" x="0px" y="0px"
	 viewBox="0 0 50 50" style="enable-background:new 0 0 50 50;" xml:space="preserve">
<style type="text/css">
	.st0{fill:#F6E29F;}
	.st1{fill:#FFFFFF;}
	.st2{fill:#E79B9A;}
	.st3{fill:#9AE8F7;}
	.st4{fill:#505050;}
</style>
<g>
	<path class="st0" d="M39.8,42.9c0-9.7-7.7-17.9-17.5-18c-0.1,0-0.2,0-0.2,0c-11.8,0-21.3,9.5-21.3,21.3c0,0.6,0,1.2,0.1,1.8h38.9
		V42.9z"/>
	<g>
		<path class="st1" d="M48.4,5.6c0-1.6-1.3-2.8-2.8-2.8h-41C3.1,2.8,1.8,4,1.8,5.6v26.8h46.6L48.4,5.6L48.4,5.6z"/>
		<path class="st2" d="M1.8,32.4V36c0,1.5,1.3,2.8,2.8,2.8h41c1.5,0,2.8-1.3,2.8-2.8v-3.7H1.8z"/>
		<rect x="5.6" y="6.5" class="st3" width="39.2" height="25.9"/>
		<polygon class="st2" points="29.5,38.8 20.8,38.8 18.9,38.8 18.9,44.5 31.4,44.5 31.4,38.8 		"/>
		<g>
			<path class="st4" d="M22.7,38.1c-0.4,0-0.8,0.3-0.8,0.8c0,0.4,0.3,0.8,0.8,0.8c0.4,0,0.8-0.3,0.8-0.8
				C23.5,38.4,23.1,38.1,22.7,38.1z"/>
			<path class="st4" d="M45.6,2h-41c-2,0-3.6,1.6-3.6,3.6v26.8c0,0,0,0,0,0s0,0,0,0V36c0,2,1.6,3.6,3.6,3.6h13.5v4.2h-4.7
				c-0.4,0-0.8,0.3-0.8,0.8c0,0.4,0.3,0.8,0.8,0.8h23.5c0.4,0,0.8-0.3,0.8-0.8c0-0.4-0.3-0.8-0.8-0.8h-4.7v-4.2l13.5,0
				c2,0,3.6-1.6,3.6-3.6V5.6C49.2,3.6,47.6,2,45.6,2z M4.6,3.5h41c1.1,0,2,0.9,2,2v26h-2.2V6.5c0-0.2-0.1-0.4-0.2-0.5
				c-0.1-0.1-0.3-0.2-0.5-0.2H14.8c-0.4,0-0.8,0.3-0.8,0.8s0.3,0.8,0.8,0.8h29.2v24.3H6.3V7.3h4.4c0.4,0,0.8-0.3,0.8-0.8
				s-0.3-0.8-0.7-0.8c0,0,0,0,0,0H5.6C5.4,5.8,5.2,5.8,5,6C4.9,6.1,4.8,6.3,4.8,6.5v25.1H2.6v-26C2.6,4.5,3.5,3.5,4.6,3.5z
				 M45.6,38.1H24.7c-0.4,0-0.8,0.3-0.8,0.8c0,0.4,0.3,0.8,0.8,0.8h4.8h0l0,0h1.1v4.2h-11v-4.2h1.1h0.1c0.4,0,0.8-0.3,0.8-0.8
				c0-0.4-0.3-0.8-0.8-0.8h-0.1l0,0H4.6c-1.1,0-2-0.9-2-2v-2.9h3c0,0,0,0,0,0h39.2c0,0,0,0,0,0h3V36C47.7,37.2,46.8,38.1,45.6,38.1z
				"/>
			<circle class="st4" cx="12.8" cy="6.5" r="0.8"/>
		</g>
	</g>
</g>
</svg>
