<?xml version="1.0" encoding="utf-8"?>
<!-- Generator: Adobe Illustrator 23.1.0, SVG Export Plug-In . SVG Version: 6.00 Build 0)  -->
<svg version="1.1" id="Layer_1" xmlns="http://www.w3.org/2000/svg" xmlns:xlink="http://www.w3.org/1999/xlink" x="0px" y="0px"
	 viewBox="0 0 50 50" style="enable-background:new 0 0 50 50;" xml:space="preserve">
<style type="text/css">
	.st0{fill:#9AE8F7;}
	.st1{fill:#FFFFFF;}
	.st2{fill:#E7F2BA;}
	.st3{fill:#E79B9A;}
	.st4{fill:#505050;}
</style>
<g>
	<path class="st0" d="M24.5,48.8c0.8-2.1,1.3-4.4,1.3-6.8c0,0-15.9,6.1-18.2-18.2c-0.2-2.3-4.4,0.4-6.4,1.2v23.8H24.5z"/>
	<g>
		<g>
			<path class="st1" d="M25,11.8c-0.8,0-1.4-0.6-1.4-1.4V3.4C23.6,2.6,24.2,2,25,2c0.8,0,1.4,0.6,1.4,1.4v6.9
				C26.4,11.2,25.8,11.8,25,11.8z"/>
			<path class="st1" d="M25,48c-0.8,0-1.4-0.6-1.4-1.4v-6.9c0-0.8,0.6-1.4,1.4-1.4c0.8,0,1.4,0.6,1.4,1.4v6.9
				C26.4,47.4,25.8,48,25,48z"/>
			<path class="st1" d="M46.6,26.4h-6.9c-0.8,0-1.4-0.6-1.4-1.4s0.6-1.4,1.4-1.4h6.9c0.8,0,1.4,0.6,1.4,1.4S47.4,26.4,46.6,26.4z"/>
			<path class="st1" d="M10.4,26.4H3.4C2.7,26.4,2,25.8,2,25s0.6-1.4,1.4-1.4h6.9c0.8,0,1.4,0.6,1.4,1.4S11.1,26.4,10.4,26.4z"/>
			<g>
				<path class="st2" d="M29.2,20.1c0,2.3-1.8,4.1-4.1,4.1s-4.1-1.8-4.1-4.1S22.7,16,25,16C27.3,16,29.2,17.8,29.2,20.1z"/>
				<path class="st0" d="M32.8,31.9v2.2H17.2v-2.2c0.1-4.2,3.5-7.7,7.8-7.7C29.3,24.2,32.7,27.7,32.8,31.9z"/>
			</g>
			<g>
				<path class="st3" d="M26.4,7.7c8.4,0.7,15.2,7.4,15.9,15.9h2.8c-0.7-10-8.7-18-18.7-18.7L26.4,7.7z"/>
				<path class="st3" d="M7.7,23.6c0.7-8.4,7.4-15.2,15.9-15.9V4.9c-10,0.7-18,8.7-18.7,18.7H7.7z"/>
				<path class="st3" d="M42.3,26.4c-0.7,8.4-7.4,15.2-15.9,15.9v2.8c10-0.7,18-8.7,18.7-18.7L42.3,26.4z"/>
				<path class="st3" d="M23.6,42.3c-8.4-0.7-15.2-7.4-15.9-15.9H4.9c0.7,10,8.7,18,18.7,18.7V42.3z"/>
			</g>
		</g>
		<g>
			<path class="st4" d="M46.6,22.9h-0.8c-1-9.8-8.8-17.6-18.6-18.6V3.4c0-1.2-1-2.2-2.2-2.2c-1.2,0-2.2,1-2.2,2.2v0.8
				C18,4.7,13.4,6.9,10,10.5c-0.3,0.3-0.3,0.8,0,1.1c0.3,0.3,0.8,0.3,1.1,0c3.1-3.2,7.3-5.3,11.8-5.8V7c-4,0.5-7.8,2.3-10.6,5.2
				s-4.7,6.6-5.2,10.6H5.7c0.3-2.9,1.3-5.8,3-8.3c0.1-0.2,0.1-0.4,0.1-0.6c0-0.2-0.1-0.4-0.3-0.5c-0.3-0.2-0.8-0.1-1,0.2
				c0,0,0,0,0,0c-1.8,2.7-2.9,5.9-3.2,9.1H3.4c-1.2,0-2.2,1-2.2,2.2s1,2.2,2.2,2.2h0.8c1,9.8,8.8,17.6,18.6,18.6v0.8
				c0,1.2,1,2.2,2.2,2.2c1.2,0,2.2-1,2.2-2.2v-0.8c4.9-0.5,9.4-2.7,12.9-6.2c0.3-0.3,0.3-0.8,0-1.1c-0.3-0.3-0.8-0.3-1,0
				c-3.1,3.2-7.3,5.3-11.8,5.8V43c4-0.5,7.8-2.3,10.6-5.2c2.9-2.9,4.7-6.6,5.2-10.6h1.3c-0.3,3-1.3,5.8-3,8.3
				c-0.2,0.3-0.1,0.8,0.2,1c0.3,0.2,0.8,0.1,1-0.2c1.8-2.7,2.8-5.9,3.2-9.1h0.8c1.2,0,2.2-1,2.2-2.2S47.8,22.9,46.6,22.9z
				 M44.3,22.9H43C42,14.5,35.5,8,27.2,7.1V5.7C36.1,6.7,43.3,13.9,44.3,22.9z M25,2.8c0.4,0,0.7,0.3,0.7,0.7v6.9
				c0,0.4-0.3,0.7-0.7,0.7c-0.4,0-0.7-0.3-0.7-0.7v-7C24.4,3.1,24.7,2.8,25,2.8z M2.8,25c0-0.4,0.3-0.7,0.7-0.7h6.9
				c0.4,0,0.7,0.3,0.7,0.7c0,0.4-0.3,0.7-0.7,0.7H3.4C3.1,25.7,2.8,25.4,2.8,25z M5.7,27.2h1.3C8,35.5,14.5,42,22.9,43v1.3
				C13.9,43.3,6.7,36.1,5.7,27.2z M25,47.3c-0.4,0-0.7-0.3-0.7-0.7v-6.9c0-0.4,0.3-0.7,0.7-0.7c0.4,0,0.7,0.3,0.7,0.7v6.9
				C25.7,47,25.4,47.3,25,47.3z M27.2,41.5v-1.8c0-1.2-1-2.2-2.2-2.2c-1.2,0-2.2,1-2.2,2.2v1.8c-7.5-1-13.3-6.8-14.3-14.3h1.8
				c1.2,0,2.2-1,2.2-2.2s-1-2.2-2.2-2.2H8.6c1-7.5,6.8-13.3,14.3-14.3v1.8c0,1.2,1,2.2,2.2,2.2c1.2,0,2.2-1,2.2-2.2V8.6
				c7.5,1,13.3,6.8,14.3,14.3h-1.8c-1.2,0-2.2,1-2.2,2.2s1,2.2,2.2,2.2h1.8C40.5,34.7,34.7,40.5,27.2,41.5z M46.6,25.7h-6.9
				c-0.4,0-0.7-0.3-0.7-0.7c0-0.4,0.3-0.7,0.7-0.7h6.9c0.4,0,0.7,0.3,0.7,0.7C47.3,25.4,47,25.7,46.6,25.7z"/>
			<path class="st4" d="M27.9,24c1.2-0.9,2-2.3,2-3.9c0-2.7-2.2-4.9-4.9-4.9c-2.7,0-4.9,2.2-4.9,4.9c0,1.6,0.8,3,2,3.9
				c-3.2,1.2-5.6,4.3-5.6,7.9v2.2c0,0.4,0.3,0.7,0.7,0.7h15.6c0.4,0,0.7-0.3,0.7-0.7v-2.2v0C33.5,28.3,31.1,25.2,27.9,24z M25,16.7
				c1.9,0,3.4,1.5,3.4,3.4s-1.5,3.4-3.4,3.4c-1.9,0-3.4-1.5-3.4-3.4S23.1,16.7,25,16.7z M32.1,33.3H18v-1.4c0.1-3.8,3.2-6.9,7-6.9
				c3.8,0,7,3.1,7.1,6.9V33.3z"/>
			<path class="st4" d="M9.2,13.2c0.2,0,0.4-0.1,0.6-0.3c0,0,0,0,0,0c0.1-0.1,0.2-0.3,0.1-0.5c0-0.2-0.1-0.4-0.3-0.5
				c-0.3-0.2-0.8-0.2-1,0.1c-0.1,0.2-0.2,0.3-0.2,0.5c0,0.2,0.1,0.4,0.3,0.5C8.9,13.2,9.1,13.2,9.2,13.2z"/>
			<path class="st4" d="M40.2,37.1c-0.1,0.2-0.2,0.3-0.1,0.5c0,0.2,0.1,0.4,0.3,0.5c0.1,0.1,0.3,0.2,0.5,0.2c0.2,0,0.4-0.1,0.6-0.3
				c0.3-0.3,0.2-0.8-0.1-1C41,36.7,40.5,36.8,40.2,37.1z"/>
		</g>
	</g>
</g>
</svg>
